<svg xmlns="http://www.w3.org/2000/svg" viewBox="0 0 80 80">
  <!-- body -->
  <ellipse cx="40" cy="55" rx="19" ry="18" fill="#8B7355"/>
  <!-- wing feathers hint -->
  <ellipse cx="22" cy="55" rx="8" ry="14" fill="#6B5535" transform="rotate(-10 22 55)"/>
  <ellipse cx="58" cy="55" rx="8" ry="14" fill="#6B5535" transform="rotate(10 58 55)"/>
  <!-- belly -->
  <ellipse cx="40" cy="58" rx="12" ry="14" fill="#D4C4A0"/>
  <!-- head -->
  <circle cx="40" cy="28" r="19" fill="#8B7355"/>
  <!-- ear tufts -->
  <polygon points="29,11 24,2 34,10" fill="#8B7355"/>
  <polygon points="51,11 56,2 46,10" fill="#8B7355"/>
  <!-- large eye discs -->
  <circle cx="32" cy="27" r="9" fill="#D4C4A0"/>
  <circle cx="48" cy="27" r="9" fill="#D4C4A0"/>
  <!-- eyes -->
  <circle cx="32" cy="27" r="6" fill="#F5A623"/>
  <circle cx="48" cy="27" r="6" fill="#F5A623"/>
  <circle cx="32" cy="27" r="4" fill="#1a1a1a"/>
  <circle cx="48" cy="27" r="4" fill="#1a1a1a"/>
  <circle cx="33.5" cy="25.5" r="1.5" fill="white"/>
  <circle cx="49.5" cy="25.5" r="1.5" fill="white"/>
  <!-- beak -->
  <polygon points="40,30 37,36 43,36" fill="#F5A623"/>
  <!-- forehead patch -->
  <ellipse cx="40" cy="19" rx="8" ry="5" fill="#6B5535"/>
</svg>
